<svg width="53" height="53" viewBox="0 0 53 53" fill="none" xmlns="http://www.w3.org/2000/svg">
<path d="M26.5 5.3C20.8774 5.3 15.4851 7.53357 11.5093 11.5093C7.53357 15.4851 5.3 20.8774 5.3 26.5C5.3 32.1226 7.53357 37.5149 11.5093 41.4907C15.4851 45.4664 20.8774 47.7 26.5 47.7C32.1226 47.7 37.5149 45.4664 41.4907 41.4907C45.4664 37.5149 47.7 32.1226 47.7 26.5C47.7 20.8774 45.4664 15.4851 41.4907 11.5093C37.5149 7.53357 32.1226 5.3 26.5 5.3ZM0 26.5C0 11.8641 11.8641 0 26.5 0C41.136 0 53 11.8641 53 26.5C53 41.136 41.136 53 26.5 53C11.8641 53 0 41.136 0 26.5ZM26.5 13.25C27.2028 13.25 27.8769 13.5292 28.3738 14.0262C28.8708 14.5231 29.15 15.1972 29.15 15.9V23.85H37.1C37.8028 23.85 38.4769 24.1292 38.9738 24.6262C39.4708 25.1231 39.75 25.7972 39.75 26.5C39.75 27.2028 39.4708 27.8769 38.9738 28.3738C38.4769 28.8708 37.8028 29.15 37.1 29.15H29.15V37.1C29.15 37.8028 28.8708 38.4769 28.3738 38.9738C27.8769 39.4708 27.2028 39.75 26.5 39.75C25.7972 39.75 25.1231 39.4708 24.6262 38.9738C24.1292 38.4769 23.85 37.8028 23.85 37.1V29.15H15.9C15.1972 29.15 14.5231 28.8708 14.0262 28.3738C13.5292 27.8769 13.25 27.2028 13.25 26.5C13.25 25.7972 13.5292 25.1231 14.0262 24.6262C14.5231 24.1292 15.1972 23.85 15.9 23.85H23.85V15.9C23.85 15.1972 24.1292 14.5231 24.6262 14.0262C25.1231 13.5292 25.7972 13.25 26.5 13.25Z" fill="url(#paint0_linear_153_1029)"/>
<defs>
<linearGradient id="paint0_linear_153_1029" x1="26.5" y1="0" x2="26.5" y2="53" gradientUnits="userSpaceOnUse">
<stop stop-color="#C2CDEC"/>
<stop offset="0.3125" stop-color="#A890CF"/>
<stop offset="1" stop-color="#633BA5"/>
</linearGradient>
</defs>
</svg>
