<svg width="8" height="8" viewBox="0 0 8 8" fill="none" xmlns="http://www.w3.org/2000/svg">
<path fill-rule="evenodd" clip-rule="evenodd" d="M5.17985 1.70266C5.161 1.76638 5.13832 1.84395 5.11366 1.92976C5.08105 2.0432 5.04495 2.17104 5.0096 2.30031C4.91334 2.65225 4.82258 3.01476 4.82258 3.12592C4.82258 3.33828 5.00946 3.55065 5.24731 3.55065H6.5215C6.75935 3.55065 6.94623 3.73753 6.94623 3.97538C6.94623 4.21323 6.07128 6.68516 6.07128 6.68516C6.00333 6.83806 5.85042 6.94849 5.67204 6.94849H2.69892V3.55065C2.75038 3.55065 2.80065 3.54707 2.84946 3.53983C3.02628 3.51359 3.18406 3.43928 3.31053 3.3128C3.41438 3.20895 3.78903 2.49316 4.07242 1.93709C4.14207 1.80041 4.20621 1.67338 4.25946 1.56745C4.31318 1.4606 4.35582 1.37522 4.38185 1.32309C4.38475 1.31729 4.38744 1.3119 4.38992 1.30694C4.39287 1.30104 4.39551 1.29574 4.39784 1.29108C4.48279 1.12968 4.63569 1.01925 4.79709 1.00226C4.8481 0.994976 4.88661 1.00644 4.93407 1.02058C4.94193 1.02292 4.95004 1.02533 4.95849 1.02775C5.17935 1.1042 5.28978 1.34205 5.22182 1.56291C5.21333 1.59051 5.20072 1.63231 5.18516 1.68474C5.18343 1.69058 5.18166 1.69656 5.17985 1.70266ZM4.67629 0.00954471C4.83529 -0.0104457 4.97271 0.00375394 5.08174 0.0264687C5.13173 0.0368818 5.17302 0.0485809 5.19507 0.0549746L5.23321 0.0662235L5.25963 0.0737727L5.2856 0.0827615C6.0488 0.346946 6.39346 1.15546 6.1776 1.85699C6.14873 1.95083 6.06159 2.24521 5.97786 2.55065H6.5215C7.31163 2.55065 7.94623 3.18524 7.94623 3.97538C7.94623 4.09904 7.92375 4.20831 7.91622 4.24492L7.91592 4.24638C7.90425 4.30312 7.8897 4.36177 7.87532 4.41606C7.84626 4.52583 7.80746 4.65689 7.76486 4.79462C7.67902 5.07214 7.56642 5.41299 7.45619 5.73941C7.34546 6.0673 7.23498 6.38694 7.15233 6.62418C7.11097 6.74292 7.07647 6.84131 7.05228 6.91012L7.01417 7.01826L7.00095 7.05563L6.98509 7.0913C6.76894 7.57764 6.27505 7.94849 5.67204 7.94849H0V2.55065H2.61539C2.62926 2.52657 2.64441 2.49992 2.66081 2.47068C2.75393 2.30465 2.86874 2.08866 2.98598 1.86308C3.20137 1.44866 3.41189 1.02712 3.48729 0.876152C3.49365 0.863406 3.49906 0.852588 3.50342 0.843867L3.50808 0.834551L3.51293 0.825334C3.72914 0.414525 4.14605 0.0713112 4.67629 0.00954471ZM1.84946 6.94849V3.55065H1V6.94849H1.84946Z" fill="white"/>
</svg>
