<svg width="23" height="18" viewBox="0 0 23 18" fill="none" xmlns="http://www.w3.org/2000/svg">
<path d="M0 1.4375C0 1.05625 0.151451 0.690618 0.421034 0.421034C0.690618 0.151451 1.05625 0 1.4375 0H2.875C3.25625 0 3.62188 0.151451 3.89147 0.421034C4.16105 0.690618 4.3125 1.05625 4.3125 1.4375C4.3125 1.81875 4.16105 2.18438 3.89147 2.45397C3.62188 2.72355 3.25625 2.875 2.875 2.875H1.4375C1.05625 2.875 0.690618 2.72355 0.421034 2.45397C0.151451 2.18438 0 1.81875 0 1.4375ZM7.1875 1.4375C7.1875 1.05625 7.33895 0.690618 7.60853 0.421034C7.87812 0.151451 8.24375 0 8.625 0H21.5625C21.9437 0 22.3094 0.151451 22.579 0.421034C22.8486 0.690618 23 1.05625 23 1.4375C23 1.81875 22.8486 2.18438 22.579 2.45397C22.3094 2.72355 21.9437 2.875 21.5625 2.875H8.625C8.24375 2.875 7.87812 2.72355 7.60853 2.45397C7.33895 2.18438 7.1875 1.81875 7.1875 1.4375ZM0 8.625C0 8.24375 0.151451 7.87812 0.421034 7.60853C0.690618 7.33895 1.05625 7.1875 1.4375 7.1875H2.875C3.25625 7.1875 3.62188 7.33895 3.89147 7.60853C4.16105 7.87812 4.3125 8.24375 4.3125 8.625C4.3125 9.00625 4.16105 9.37188 3.89147 9.64147C3.62188 9.91105 3.25625 10.0625 2.875 10.0625H1.4375C1.05625 10.0625 0.690618 9.91105 0.421034 9.64147C0.151451 9.37188 0 9.00625 0 8.625ZM7.1875 8.625C7.1875 8.24375 7.33895 7.87812 7.60853 7.60853C7.87812 7.33895 8.24375 7.1875 8.625 7.1875H21.5625C21.9437 7.1875 22.3094 7.33895 22.579 7.60853C22.8486 7.87812 23 8.24375 23 8.625C23 9.00625 22.8486 9.37188 22.579 9.64147C22.3094 9.91105 21.9437 10.0625 21.5625 10.0625H8.625C8.24375 10.0625 7.87812 9.91105 7.60853 9.64147C7.33895 9.37188 7.1875 9.00625 7.1875 8.625ZM0 15.8125C0 15.4313 0.151451 15.0656 0.421034 14.796C0.690618 14.5264 1.05625 14.375 1.4375 14.375H2.875C3.25625 14.375 3.62188 14.5264 3.89147 14.796C4.16105 15.0656 4.3125 15.4313 4.3125 15.8125C4.3125 16.1937 4.16105 16.5594 3.89147 16.829C3.62188 17.0986 3.25625 17.25 2.875 17.25H1.4375C1.05625 17.25 0.690618 17.0986 0.421034 16.829C0.151451 16.5594 0 16.1937 0 15.8125ZM7.1875 15.8125C7.1875 15.4313 7.33895 15.0656 7.60853 14.796C7.87812 14.5264 8.24375 14.375 8.625 14.375H21.5625C21.9437 14.375 22.3094 14.5264 22.579 14.796C22.8486 15.0656 23 15.4313 23 15.8125C23 16.1937 22.8486 16.5594 22.579 16.829C22.3094 17.0986 21.9437 17.25 21.5625 17.25H8.625C8.24375 17.25 7.87812 17.0986 7.60853 16.829C7.33895 16.5594 7.1875 16.1937 7.1875 15.8125Z" fill="white"/>
</svg>
