<svg width="19" height="21" viewBox="0 0 19 21" fill="none" xmlns="http://www.w3.org/2000/svg">
<path d="M9.5 2.1C8.3802 2.1 7.30626 2.5425 6.51444 3.33015C5.72262 4.1178 5.27778 5.18609 5.27778 6.3C5.27778 7.41391 5.72262 8.4822 6.51444 9.26985C7.30626 10.0575 8.3802 10.5 9.5 10.5C10.6198 10.5 11.6937 10.0575 12.4856 9.26985C13.2774 8.4822 13.7222 7.41391 13.7222 6.3C13.7222 5.18609 13.2774 4.1178 12.4856 3.33015C11.6937 2.5425 10.6198 2.1 9.5 2.1ZM3.16667 6.3C3.16667 4.62914 3.83393 3.02671 5.02166 1.84523C6.20939 0.663748 7.8203 0 9.5 0C11.1797 0 12.7906 0.663748 13.9783 1.84523C15.1661 3.02671 15.8333 4.62914 15.8333 6.3C15.8333 7.97086 15.1661 9.57329 13.9783 10.7548C12.7906 11.9363 11.1797 12.6 9.5 12.6C7.8203 12.6 6.20939 11.9363 5.02166 10.7548C3.83393 9.57329 3.16667 7.97086 3.16667 6.3ZM5.27778 16.8C4.43793 16.8 3.63247 17.1319 3.03861 17.7226C2.44474 18.3134 2.11111 19.1146 2.11111 19.95C2.11111 20.2285 1.9999 20.4955 1.80195 20.6925C1.60399 20.8894 1.33551 21 1.05556 21C0.775605 21 0.50712 20.8894 0.309165 20.6925C0.11121 20.4955 0 20.2285 0 19.95C0 18.5576 0.55605 17.2223 1.54583 16.2377C2.5356 15.2531 3.87802 14.7 5.27778 14.7H13.7222C15.122 14.7 16.4644 15.2531 17.4542 16.2377C18.444 17.2223 19 18.5576 19 19.95C19 20.2285 18.8888 20.4955 18.6908 20.6925C18.4929 20.8894 18.2244 21 17.9444 21C17.6645 21 17.396 20.8894 17.1981 20.6925C17.0001 20.4955 16.8889 20.2285 16.8889 19.95C16.8889 19.1146 16.5553 18.3134 15.9614 17.7226C15.3675 17.1319 14.5621 16.8 13.7222 16.8H5.27778Z" fill="white"/>
</svg>
