<svg width="8" height="12" viewBox="0 0 8 12" fill="none" xmlns="http://www.w3.org/2000/svg">
<path d="M3.45769 6.36235C3.58003 5.92051 3.98741 5.39182 4.18382 5.17538C4.72015 4.58603 5.18969 4.15384 5.18969 3.45144C5.18969 2.87036 4.75255 2.26998 3.98741 2.26998C3.28045 2.26998 2.71238 2.70631 2.72759 3.54656C2.74346 4.42818 4.33658 4.80936 3.31418 5.3346C2.37643 5.81642 1.15166 4.93205 0.695351 4.18623C0.346835 3.61687 0.305833 2.78558 0.615992 2.11627C1.17547 0.907929 2.16679 0.193816 3.58598 0.0270054C5.33849 -0.179095 7.13926 0.823145 7.49836 2.41611C7.98972 4.59154 5.75776 5.61377 4.9331 6.36235C3.82472 7.36941 4.51514 9.18158 4.06809 9.18158C3.6541 9.18158 3.13364 7.53209 3.45703 6.36235H3.45769ZM1.98823 10.0983C1.8725 10.1183 1.75611 10.1363 1.64104 10.1583C1.22771 10.2369 0.822986 10.3341 0.452646 10.5092C0.30451 10.5795 0.175552 10.6677 0.0763542 10.7821C0.016174 10.8511 -0.0116015 10.9283 0.00360892 11.0144C0.0280778 11.1509 0.126615 11.2495 0.248959 11.3343C0.407015 11.4439 0.590862 11.5204 0.781984 11.5845C1.40296 11.794 2.05767 11.8864 2.72032 11.945C3.32344 11.9981 3.92921 12.0118 4.53564 11.9898C5.19696 11.9663 5.85299 11.9064 6.49646 11.7761C6.86746 11.701 7.23119 11.6058 7.56185 11.4439C7.69609 11.3784 7.8191 11.3019 7.90904 11.1943C8.04395 11.033 8.02609 10.8628 7.86738 10.7187C7.71064 10.576 7.51423 10.483 7.30525 10.4058C6.98121 10.2858 6.64063 10.2059 6.29343 10.1452C6.20085 10.1287 6.1076 10.1149 6.01436 10.0997C6.09305 10.1335 6.17704 10.1549 6.25243 10.1893C6.34171 10.23 6.43231 10.2734 6.50638 10.3293C6.61616 10.412 6.61285 10.5133 6.50836 10.6002C6.46273 10.6381 6.4085 10.6718 6.35163 10.6987C6.13802 10.8014 5.90193 10.8545 5.66253 10.8972C4.9331 11.0255 4.1944 11.0496 3.45174 11.0158C2.96434 10.9937 2.48158 10.9455 2.0127 10.8262C1.84407 10.7835 1.6794 10.7318 1.53986 10.6394C1.3732 10.5285 1.36858 10.4003 1.53986 10.2948C1.6331 10.2369 1.74421 10.1976 1.84936 10.1535C1.89433 10.1342 1.94459 10.1225 1.9922 10.1073C1.99088 10.1039 1.99022 10.1011 1.98889 10.0977L1.98823 10.0983ZM4.94434 10.3679C5.05015 10.343 5.15464 10.3044 5.24855 10.2576C5.34311 10.21 5.34179 10.1356 5.24855 10.0859C5.16919 10.0439 5.08057 10.0081 4.98931 9.98806C4.39346 9.85847 3.79166 9.86123 3.18919 9.95084C3.04039 9.9729 2.89358 10.0046 2.76661 10.0756C2.65683 10.1369 2.65484 10.2128 2.76793 10.27C2.84266 10.3079 2.92665 10.3368 3.01064 10.3582C3.33071 10.4375 3.66138 10.454 4.03767 10.4582C4.3141 10.4547 4.63418 10.4409 4.94434 10.3686V10.3679Z" fill="#DDDDDD"/>
</svg>
