<svg width="19" height="24" viewBox="0 0 19 24" fill="none" xmlns="http://www.w3.org/2000/svg">
<path d="M9.5 0C4.275 0 0 4.275 0 9.5C0 15.9125 8.3125 23.1562 8.66875 23.5125C8.90625 23.6312 9.2625 23.75 9.5 23.75C9.7375 23.75 10.0938 23.6312 10.3313 23.5125C10.6875 23.1562 19 15.9125 19 9.5C19 4.275 14.725 0 9.5 0ZM9.5 21.0188C7.00625 18.6438 2.375 13.5375 2.375 9.5C2.375 5.58125 5.58125 2.375 9.5 2.375C13.4187 2.375 16.625 5.58125 16.625 9.5C16.625 13.4187 11.9937 18.6438 9.5 21.0188ZM9.5 4.75C6.8875 4.75 4.75 6.8875 4.75 9.5C4.75 12.1125 6.8875 14.25 9.5 14.25C12.1125 14.25 14.25 12.1125 14.25 9.5C14.25 6.8875 12.1125 4.75 9.5 4.75ZM9.5 11.875C8.19375 11.875 7.125 10.8062 7.125 9.5C7.125 8.19375 8.19375 7.125 9.5 7.125C10.8062 7.125 11.875 8.19375 11.875 9.5C11.875 10.8062 10.8062 11.875 9.5 11.875Z" fill="white"/>
</svg>
