<svg width="13" height="16" viewBox="0 0 13 16" fill="none" xmlns="http://www.w3.org/2000/svg">
<path fill-rule="evenodd" clip-rule="evenodd" d="M0.491088 0.468627C0.191031 0.768684 0.0224609 1.17565 0.0224609 1.59999V15.1999C0.0224468 15.3469 0.0629223 15.491 0.139446 15.6165C0.215969 15.742 0.325582 15.844 0.456255 15.9113C0.586928 15.9785 0.73361 16.0085 0.880202 15.9979C1.02679 15.9873 1.16763 15.9365 1.28725 15.8511L6.42243 12.1831L11.5576 15.8511C11.6772 15.9365 11.8181 15.9873 11.9647 15.9979C12.1112 16.0085 12.2579 15.9785 12.3886 15.9113C12.5193 15.844 12.6289 15.742 12.7054 15.6165C12.7819 15.491 12.8224 15.3469 12.8224 15.1999V1.59999C12.8224 1.17565 12.6538 0.768684 12.3538 0.468627C12.0537 0.16857 11.6468 0 11.2224 0H1.62245C1.19811 0 0.791144 0.16857 0.491088 0.468627Z" fill="url(#paint0_linear_196_8)"/>
<defs>
<linearGradient id="paint0_linear_196_8" x1="6" y1="1" x2="6" y2="15" gradientUnits="userSpaceOnUse">
<stop stop-color="#866EB0"/>
<stop offset="1" stop-color="#633BA5" stop-opacity="0.729412"/>
<stop offset="1" stop-color="#633BA5" stop-opacity="0"/>
</linearGradient>
</defs>
</svg>
