<svg width="253" height="56" viewBox="0 0 253 56" fill="none" xmlns="http://www.w3.org/2000/svg">
<path d="M0 55.48L2.2 25.98H10.5L7.06 54.22L5.74 54.16L15.88 25.98H25.74L23.86 54.16L22.9 54.22L31.46 25.98H39.76L29.4 55.48H17.06L19.48 31.22H20.28L12.36 55.48H0Z" fill="white"/>
<path d="M51.8609 55.48L53.8609 45.98C53.9143 45.7666 53.9809 45.4466 54.0609 45.02C54.1409 44.58 54.2143 44.14 54.2809 43.7C54.3476 43.2466 54.3809 42.9 54.3809 42.66C54.3809 42.3533 54.3409 42.0666 54.2609 41.8C54.1943 41.5333 54.0676 41.3 53.8809 41.1C53.7076 40.9 53.4543 40.7466 53.1209 40.64C52.8009 40.52 52.3809 40.46 51.8609 40.46C51.0076 40.46 50.2809 40.6333 49.6809 40.98C49.0809 41.3266 48.5943 41.8266 48.2209 42.48C47.8609 43.1333 47.5809 43.92 47.3809 44.84L46.1809 43.24C46.5943 41.2933 47.3143 39.62 48.3409 38.22C49.3676 36.8066 50.6143 35.72 52.0809 34.96C53.5609 34.1866 55.1876 33.8 56.9609 33.8C58.2809 33.8 59.3409 33.98 60.1409 34.34C60.9543 34.6866 61.5676 35.1466 61.9809 35.72C62.4076 36.28 62.6943 36.88 62.8409 37.52C62.9876 38.16 63.0609 38.76 63.0609 39.32C63.0609 40 62.9676 40.8466 62.7809 41.86C62.5943 42.86 62.3476 44.0866 62.0409 45.54L59.9209 55.48H51.8609ZM37.0809 55.48L43.7209 24.22H51.7809L45.1409 55.48H37.0809Z" fill="white"/>
<path d="M73.5416 56C71.9149 56 70.4682 55.6533 69.2016 54.96C67.9482 54.2533 66.9682 53.2133 66.2616 51.84C65.5549 50.4666 65.2016 48.7866 65.2016 46.8C65.2016 45 65.4949 43.3133 66.0816 41.74C66.6682 40.1666 67.4949 38.7866 68.5616 37.6C69.6416 36.4 70.9149 35.4666 72.3816 34.8C73.8482 34.1333 75.4549 33.8 77.2016 33.8C78.6282 33.8 79.9349 34.1333 81.1216 34.8C82.3082 35.4666 83.2549 36.4 83.9616 37.6C84.6816 38.8 85.0416 40.1933 85.0416 41.78C85.0416 42.1533 85.0082 42.5933 84.9416 43.1C84.8882 43.6066 84.8082 44.0533 84.7016 44.44L81.8416 44.6C81.8816 44.4133 81.9149 44.2266 81.9416 44.04C81.9682 43.84 81.9816 43.6533 81.9816 43.48C81.9816 42.8 81.8149 42.24 81.4816 41.8C81.1616 41.3466 80.7416 41.0133 80.2216 40.8C79.7149 40.5733 79.1816 40.46 78.6216 40.46C77.9549 40.46 77.3282 40.5866 76.7416 40.84C76.1549 41.08 75.6349 41.4266 75.1816 41.88C74.7416 42.3333 74.3949 42.88 74.1416 43.52C73.8882 44.1466 73.7616 44.8466 73.7616 45.62C73.7616 46.42 73.8949 47.0933 74.1616 47.64C74.4282 48.1866 74.8016 48.6066 75.2816 48.9C75.7616 49.18 76.3082 49.32 76.9216 49.32C77.6282 49.32 78.3082 49.1733 78.9616 48.88C79.6282 48.5733 80.2016 48.1266 80.6816 47.54C81.1749 46.94 81.5149 46.2 81.7016 45.32L84.4416 45.7C84.0016 47.7933 83.2282 49.6133 82.1216 51.16C81.0282 52.7066 79.7349 53.9 78.2416 54.74C76.7482 55.58 75.1816 56 73.5416 56ZM87.5816 55.48H79.5216L84.0216 34.24H92.0816L87.5816 55.48Z" fill="white"/>
<path d="M103.327 56C102.514 56 101.674 55.9466 100.807 55.84C99.9539 55.7333 99.1605 55.52 98.4272 55.2C97.6939 54.8666 97.1005 54.38 96.6472 53.74C96.1939 53.1 95.9672 52.24 95.9672 51.16C95.9672 50.6666 96.0139 50.1266 96.1072 49.54C96.2139 48.94 96.3472 48.2733 96.5072 47.54L98.0672 40.24H93.3272L94.6072 34.24H94.7072C95.7472 34.24 96.5938 34.1866 97.2472 34.08C97.9005 33.9733 98.4205 33.7333 98.8072 33.36C99.2072 32.9733 99.5339 32.3866 99.7872 31.6C100.054 30.8133 100.321 29.74 100.587 28.38L100.807 27.28H108.887L107.427 34.24H113.287L112.007 40.24H106.147L104.907 46.1C104.761 46.7933 104.654 47.3266 104.587 47.7C104.521 48.06 104.487 48.4 104.487 48.72C104.487 49.12 104.581 49.44 104.767 49.68C104.954 49.92 105.314 50.04 105.847 50.04C106.327 50.04 106.787 49.9933 107.227 49.9C107.681 49.8066 108.021 49.7133 108.247 49.62L107.007 55.44C106.674 55.5733 106.174 55.7 105.507 55.82C104.841 55.94 104.114 56 103.327 56Z" fill="white"/>
<path d="M120.482 55.48H112.622L118.902 25.98H132.022L132.542 53.06L131.982 53.38L137.802 25.98H145.662L139.382 55.48H126.162L125.622 28.5L126.282 28.18L120.482 55.48Z" fill="white"/>
<path d="M155.613 55.98C153.467 55.98 151.6 55.6 150.013 54.84C148.44 54.0666 147.22 52.9933 146.353 51.62C145.487 50.2466 145.053 48.6466 145.053 46.82C145.053 44.8866 145.413 43.1266 146.133 41.54C146.853 39.94 147.853 38.5666 149.133 37.42C150.413 36.26 151.9 35.3666 153.593 34.74C155.287 34.1133 157.107 33.8 159.053 33.8C161.2 33.8 163.06 34.18 164.633 34.94C166.22 35.7 167.447 36.7666 168.313 38.14C169.18 39.5133 169.613 41.1133 169.613 42.94C169.613 44.8733 169.253 46.64 168.533 48.24C167.813 49.8266 166.813 51.2 165.533 52.36C164.253 53.52 162.767 54.4133 161.073 55.04C159.38 55.6666 157.56 55.98 155.613 55.98ZM156.473 49.88C157.487 49.88 158.36 49.5866 159.093 49C159.827 48.4133 160.393 47.6333 160.793 46.66C161.193 45.6866 161.393 44.6333 161.393 43.5C161.393 42.7533 161.28 42.1133 161.053 41.58C160.84 41.0466 160.5 40.64 160.033 40.36C159.567 40.0666 158.96 39.92 158.213 39.92C157.453 39.92 156.767 40.0866 156.153 40.42C155.553 40.7533 155.04 41.2133 154.613 41.8C154.187 42.3733 153.86 43.04 153.633 43.8C153.407 44.56 153.293 45.3733 153.293 46.24C153.293 47.3733 153.54 48.2666 154.033 48.92C154.54 49.56 155.353 49.88 156.473 49.88Z" fill="white"/>
<path d="M187.232 55.48L188.312 34.24H193.632L193.192 53.56L192.112 53.6L198.372 34.24H206.692L198.152 55.48H187.232ZM172.192 55.48L172.712 34.24H180.832L178.832 53.6L177.612 53.56L185.352 34.24H191.072L183.152 55.48H172.192Z" fill="white"/>
<path d="M230.551 29.6923C231.147 27.6304 233.133 25.1632 234.091 24.1532C236.705 21.403 238.994 19.3861 238.994 16.1084C238.994 13.3968 236.863 10.5951 233.133 10.5951C229.687 10.5951 226.917 12.6312 226.991 16.5523C227.069 20.6664 234.835 22.4452 229.851 24.8963C225.279 27.1447 219.309 23.0177 217.084 19.5373C215.385 16.8804 215.185 13.0011 216.697 9.87775C219.428 4.23575 224.261 0.903311 231.176 0.124883C239.72 -0.836894 248.498 3.84011 250.249 11.2738C252.644 21.4255 241.764 26.1958 237.743 29.6891C232.34 34.3886 235.706 42.8451 233.526 42.8451C231.508 42.8451 228.971 35.1477 230.547 29.6891L230.551 29.6923ZM223.387 47.1265C222.823 47.2198 222.255 47.3034 221.694 47.4063C219.679 47.773 217.706 48.2266 215.901 49.0436C215.179 49.3717 214.55 49.7834 214.067 50.3174C213.773 50.6391 213.638 50.9993 213.712 51.4014C213.831 52.0383 214.312 52.4983 214.908 52.8939C215.678 53.4054 216.575 53.7624 217.506 54.0616C220.534 55.0394 223.726 55.4705 226.956 55.7439C229.896 55.9916 232.849 56.0559 235.806 55.953C239.03 55.8436 242.228 55.5637 245.365 54.9558C247.173 54.6052 248.947 54.1613 250.559 53.4054C251.213 53.0998 251.813 52.7427 252.251 52.2409C252.909 51.4883 252.822 50.6937 252.048 50.0215C251.284 49.3556 250.326 48.9214 249.308 48.5611C247.728 48.0014 246.068 47.6283 244.375 47.3452C243.924 47.268 243.469 47.2037 243.014 47.1329C243.398 47.2905 243.808 47.3902 244.175 47.5511C244.61 47.7409 245.052 47.9435 245.413 48.2041C245.948 48.5901 245.932 49.0629 245.423 49.4682C245.2 49.6451 244.936 49.8027 244.659 49.9282C243.617 50.4075 242.466 50.6551 241.299 50.8546C237.743 51.4529 234.142 51.5655 230.522 51.4078C228.146 51.3049 225.792 51.0797 223.506 50.5233C222.684 50.3238 221.881 50.0826 221.201 49.6515C220.389 49.1337 220.366 48.5354 221.201 48.0432C221.656 47.773 222.197 47.5897 222.71 47.3838C222.929 47.2937 223.174 47.2391 223.406 47.1683C223.4 47.1522 223.397 47.1394 223.39 47.1233L223.387 47.1265ZM237.798 48.3842C238.314 48.2684 238.823 48.0883 239.281 47.8695C239.742 47.6476 239.736 47.3002 239.281 47.0686C238.894 46.8724 238.462 46.7051 238.017 46.6118C235.113 46.0071 232.179 46.02 229.242 46.4381C228.516 46.5411 227.801 46.689 227.182 47.0203C226.646 47.3066 226.637 47.6604 227.188 47.9274C227.552 48.1043 227.962 48.2394 228.371 48.3392C229.932 48.7091 231.544 48.7863 233.378 48.8056C234.726 48.7895 236.286 48.7252 237.798 48.3874V48.3842Z" fill="white"/>
</svg>
