<svg width="101" height="144" viewBox="0 0 101 144" fill="none" xmlns="http://www.w3.org/2000/svg">
<path d="M43.6598 76.3516C45.2044 71.0496 50.3476 64.7055 52.8273 62.1083C59.5985 55.0362 65.5265 49.8501 65.5265 41.4216C65.5265 34.4488 60.0076 27.2444 50.3476 27.2444C41.4222 27.2444 34.2502 32.4802 34.4423 42.563C34.6426 53.1421 54.756 57.7162 41.848 64.0189C30.0088 69.8006 14.546 59.1885 8.78504 50.2388C4.38498 43.4067 3.86733 33.4314 7.78313 25.3999C14.8549 10.8919 27.3705 2.3228 45.2796 0.321127C67.4051 -2.15201 90.1401 9.87456 94.6737 28.9897C100.877 55.0941 72.6985 67.3606 62.287 76.3433C48.2937 88.4278 57.0103 110.173 51.3662 110.173C46.1396 110.173 39.5687 90.3798 43.6515 76.3433L43.6598 76.3516ZM25.1078 121.182C23.6467 121.422 22.1772 121.637 20.7245 121.902C15.5062 122.845 10.3964 124.011 5.72087 126.112C3.85063 126.956 2.22253 128.015 0.970143 129.388C0.210362 130.215 -0.140305 131.141 0.0517277 132.175C0.36065 133.813 1.60469 134.996 3.1493 136.013C5.14477 137.328 7.46585 138.246 9.87879 139.015C17.7187 141.53 25.9845 142.638 34.3504 143.341C41.9649 143.978 49.6128 144.144 57.2691 143.879C65.6183 143.598 73.9008 142.878 82.0246 141.315C86.7085 140.413 91.3006 139.272 95.4752 137.328C97.1701 136.542 98.7231 135.624 99.8586 134.334C101.562 132.398 101.336 130.355 99.3326 128.627C97.3538 126.914 94.8741 125.798 92.2357 124.871C88.1446 123.432 83.8447 122.473 79.4614 121.745C78.2925 121.546 77.1153 121.381 75.938 121.199C76.9316 121.604 77.9919 121.861 78.9437 122.274C80.0709 122.762 81.2147 123.283 82.1498 123.953C83.5358 124.946 83.4941 126.162 82.1749 127.204C81.5988 127.659 80.9142 128.064 80.1961 128.387C77.4993 129.619 74.5186 130.256 71.4962 130.769C62.287 132.307 52.9609 132.597 43.5847 132.192C37.4313 131.927 31.3363 131.348 25.4167 129.917C23.2877 129.404 21.2087 128.784 19.447 127.675C17.343 126.344 17.2846 124.805 19.447 123.54C20.6243 122.845 22.0269 122.373 23.3545 121.844C23.9222 121.612 24.5568 121.472 25.1579 121.29C25.1412 121.249 25.1329 121.215 25.1162 121.174L25.1078 121.182ZM62.4289 124.416C63.7648 124.119 65.084 123.656 66.2696 123.093C67.4635 122.522 67.4468 121.629 66.2696 121.033C65.2677 120.529 64.1489 120.099 62.9967 119.859C55.474 118.304 47.8762 118.337 40.27 119.412C38.3915 119.677 36.5379 120.057 34.9349 120.909C33.5489 121.646 33.5238 122.555 34.9516 123.242C35.895 123.697 36.9554 124.044 38.0157 124.301C42.0568 125.252 46.2314 125.45 50.9821 125.5C54.4721 125.459 58.5131 125.293 62.4289 124.425V124.416Z" fill="white"/>
</svg>
