<svg width="13" height="16" viewBox="0 0 13 16" fill="none" xmlns="http://www.w3.org/2000/svg">
<path d="M3.72204e-09 1.59999C3.72204e-09 1.17565 0.16857 0.768684 0.468627 0.468627C0.768683 0.16857 1.17565 0 1.59999 0H11.1999C11.6243 0 12.0313 0.16857 12.3313 0.468627C12.6314 0.768684 12.7999 1.17565 12.7999 1.59999V15.1999C12.8 15.3469 12.7595 15.491 12.683 15.6165C12.6064 15.742 12.4968 15.844 12.3661 15.9113C12.2355 15.9785 12.0888 16.0085 11.9422 15.9979C11.7956 15.9873 11.6548 15.9365 11.5351 15.8511L6.39997 12.1831L1.26479 15.8511C1.14517 15.9365 1.00433 15.9873 0.857741 15.9979C0.711149 16.0085 0.564467 15.9785 0.433794 15.9113C0.303121 15.844 0.193508 15.742 0.116985 15.6165C0.0404614 15.491 -1.41715e-05 15.3469 3.72204e-09 15.1999V1.59999ZM11.1999 1.59999H1.59999V13.6455L5.93517 10.5495C6.07081 10.4527 6.23331 10.4007 6.39997 10.4007C6.56663 10.4007 6.72912 10.4527 6.86477 10.5495L11.1999 13.6447V1.59999Z" fill="url(#paint0_linear_150_581)"/>
<defs>
<linearGradient id="paint0_linear_150_581" x1="6.39997" y1="0" x2="6.39997" y2="16" gradientUnits="userSpaceOnUse">
<stop stop-color="#A692C7"/>
<stop offset="1" stop-color="#633BA5" stop-opacity="0.733333"/>
</linearGradient>
</defs>
</svg>
