<svg width="20" height="18" viewBox="0 0 20 18" fill="currentColor" xmlns="http://www.w3.org/2000/svg">
<path d="M18.25 0H2.5C2.30109 0 2.11032 0.0790178 1.96967 0.21967C1.82902 0.360322 1.75 0.551088 1.75 0.75V9.75C1.75136 10.9431 2.22591 12.0869 3.06953 12.9305C3.91314 13.7741 5.05694 14.2486 6.25 14.25H11.5C12.6931 14.2486 13.8369 13.7741 14.6805 12.9305C15.5241 12.0869 15.9986 10.9431 16 9.75V6H16.8438C17.6143 5.99913 18.353 5.69266 18.8978 5.14782C19.4427 4.60298 19.7491 3.86427 19.75 3.09375V1.5C19.75 1.10218 19.592 0.720644 19.3107 0.43934C19.0294 0.158035 18.6478 0 18.25 0ZM18.25 3.09375C18.25 3.46671 18.1018 3.8244 17.8381 4.08812C17.5744 4.35184 17.2167 4.5 16.8438 4.5H16V1.5H18.25V3.09375ZM16.75 15.75H1C0.801088 15.75 0.610322 15.829 0.46967 15.9697C0.329018 16.1103 0.25 16.3011 0.25 16.5C0.25 16.6989 0.329018 16.8897 0.46967 17.0303C0.610322 17.171 0.801088 17.25 1 17.25H16.75C16.9489 17.25 17.1397 17.171 17.2803 17.0303C17.421 16.8897 17.5 16.6989 17.5 16.5C17.5 16.3011 17.421 16.1103 17.2803 15.9697C17.1397 15.829 16.9489 15.75 16.75 15.75Z" fill="black"/>
</svg>
