<svg width="18" height="24" viewBox="0 0 18 24" fill="currentColor" xmlns="http://www.w3.org/2000/svg">
<path d="M15.3281 14.4033C16.8633 12.2306 17.512 9.63938 17.1562 7.10578C17.0053 6.03403 16.6448 5.0025 16.0953 4.07009C15.5457 3.13767 14.8179 2.32263 13.9533 1.6715C13.0888 1.02037 12.1045 0.545903 11.0565 0.275192C10.0086 0.00448161 8.91766 -0.0571725 7.84592 0.0937504C3.34592 0.726094 0.198728 4.90219 0.831072 9.40219C1.18592 11.9283 2.5242 14.2378 4.59842 15.9056C5.7506 16.8281 7.05045 17.4759 8.28373 17.7656C8.37698 17.788 8.45811 17.8453 8.51042 17.9257C8.56274 18.0061 8.58226 18.1035 8.56498 18.1978L8.3367 19.4344C8.30353 19.6026 8.32796 19.7772 8.40607 19.9298C8.46947 20.0516 8.56506 20.1536 8.68242 20.2248C8.79979 20.2959 8.93444 20.3335 9.0717 20.3334C9.10668 20.3335 9.14162 20.331 9.17623 20.3259L10.0111 20.2088C10.031 20.206 10.0512 20.2097 10.0689 20.2193C10.0865 20.2289 10.1006 20.244 10.109 20.2622C10.8928 21.9642 12.24 23.2552 13.9598 23.9353C14.054 23.9725 14.1547 23.9903 14.2558 23.9875C14.357 23.9847 14.4566 23.9615 14.5486 23.9193C14.6405 23.877 14.723 23.8166 14.791 23.7416C14.859 23.6666 14.9111 23.5786 14.9442 23.483C15.0769 23.0995 14.8673 22.6828 14.4904 22.5323C13.3138 22.0623 12.333 21.2043 11.7108 20.1005C11.7029 20.0872 11.6984 20.0721 11.6978 20.0567C11.6971 20.0412 11.7003 20.0259 11.707 20.0119C11.7138 19.998 11.7238 19.986 11.7363 19.9769C11.7488 19.9678 11.7634 19.9619 11.7787 19.9598L12.1256 19.913C12.3071 19.8896 12.4745 19.8027 12.5981 19.6678C12.6981 19.5559 12.7623 19.4166 12.7822 19.2678C12.8022 19.1191 12.7771 18.9678 12.7101 18.8334L12.1448 17.6977C12.1019 17.6114 12.0938 17.5119 12.1222 17.4198C12.1507 17.3277 12.2135 17.2501 12.2976 17.2031C13.4034 16.5858 14.475 15.6094 15.3281 14.4033ZM8.06717 15.1898C7.97281 15.1898 7.87929 15.172 7.79154 15.1373C5.85748 14.3723 4.21498 12.667 3.50482 10.687C3.47021 10.594 3.45441 10.4951 3.45832 10.3959C3.46224 10.2967 3.4858 10.1993 3.52764 10.1093C3.56947 10.0193 3.62875 9.93854 3.70204 9.87162C3.77533 9.8047 3.86118 9.753 3.9546 9.7195C4.04802 9.686 4.14716 9.67138 4.24627 9.67648C4.34538 9.68158 4.4425 9.7063 4.53199 9.7492C4.62148 9.79211 4.70156 9.85235 4.7676 9.92643C4.83364 10.0005 4.88432 10.087 4.9167 10.1808C5.59638 12.0764 7.13248 13.2638 8.34326 13.7433C8.50564 13.8075 8.64054 13.9263 8.72471 14.0793C8.80887 14.2322 8.83702 14.4098 8.80431 14.5813C8.7716 14.7528 8.68007 14.9075 8.5455 15.0188C8.41094 15.1301 8.24177 15.1909 8.06717 15.1908V15.1898Z" fill="black"/>
</svg>
