<svg width="18" height="22" viewBox="0 0 18 22" fill="currentColor" xmlns="http://www.w3.org/2000/svg">
<path d="M16.7738 0.751698C16.6254 0.637353 16.4525 0.558966 16.2687 0.522692C16.0848 0.486419 15.8951 0.493245 15.7144 0.542636L6.37128 3.0542C6.04709 3.14127 5.76103 3.33361 5.55807 3.60097C5.3551 3.86834 5.24675 4.19557 5.25003 4.53123V15.125C5.25003 15.4409 5.04565 15.7137 4.72924 15.8201L4.72362 15.8225L2.28612 16.6662C1.35378 16.9779 0.750026 17.8437 0.750026 18.8708C0.746612 19.2885 0.843769 19.7009 1.03329 20.0732C1.22282 20.4455 1.49914 20.7667 1.83893 21.0097C2.2765 21.3275 2.80325 21.4991 3.34409 21.5C3.62703 21.4995 3.90803 21.4531 4.17612 21.3626L4.19393 21.3565L5.21768 20.9844C5.66177 20.8361 6.04832 20.5526 6.32312 20.1735C6.59793 19.7945 6.74721 19.3389 6.75003 18.8708V8.93326C6.75003 8.59154 6.97362 8.31404 7.32003 8.22685L7.32987 8.22404L15.5157 6.03779C15.5433 6.03065 15.5722 6.02992 15.6002 6.03566C15.6282 6.04141 15.6545 6.05346 15.6771 6.07092C15.6997 6.08838 15.718 6.11077 15.7307 6.13638C15.7433 6.162 15.7499 6.19017 15.75 6.21873V12.8717C15.75 13.1881 15.5508 13.452 15.2292 13.5598L15.2175 13.564L12.8321 14.4129C12.3682 14.5655 11.9648 14.8617 11.6804 15.2587C11.396 15.6557 11.2453 16.1329 11.25 16.6212C11.2458 17.0402 11.3426 17.454 11.5321 17.8277C11.7217 18.2014 11.9984 18.524 12.3389 18.7681C12.6723 19.0091 13.0589 19.1663 13.4659 19.2262C13.8729 19.2862 14.2883 19.2472 14.6771 19.1126L14.6939 19.107L15.7177 18.7344C16.1617 18.5862 16.5483 18.3027 16.8231 17.9238C17.0979 17.5448 17.2472 17.0893 17.25 16.6212V1.71873C17.251 1.53165 17.2086 1.3469 17.1259 1.17907C17.0432 1.01124 16.9227 0.864931 16.7738 0.751698Z" fill="black"/>
</svg>
