<svg width="19" height="24" viewBox="0 0 19 24" fill="none" xmlns="http://www.w3.org/2000/svg">
<path d="M5.52494e-09 2.35599C5.52494e-09 1.73114 0.250222 1.13189 0.695621 0.690053C1.14102 0.248219 1.74511 0 2.375 0H16.625C17.2549 0 17.859 0.248219 18.3044 0.690053C18.7498 1.13189 19 1.73114 19 2.35599V22.3819C19 22.5983 18.9399 22.8106 18.8263 22.9953C18.7128 23.1801 18.5501 23.3303 18.3561 23.4293C18.1621 23.5284 17.9444 23.5725 17.7268 23.5569C17.5092 23.5413 17.3001 23.4665 17.1226 23.3408L9.5 17.9397L1.87744 23.3408C1.69987 23.4665 1.49081 23.5413 1.27322 23.5569C1.05562 23.5725 0.837885 23.5284 0.643916 23.4293C0.449948 23.3303 0.28724 23.1801 0.17365 22.9953C0.0600602 22.8106 -2.1036e-05 22.5983 5.52494e-09 22.3819V2.35599ZM16.625 2.35599H2.375V20.093L8.81006 15.5342C9.01141 15.3916 9.25262 15.315 9.5 15.315C9.74738 15.315 9.98859 15.3916 10.1899 15.5342L16.625 20.0919V2.35599Z" fill="white"/>
</svg>
