<svg width="8" height="8" viewBox="0 0 8 8" fill="none" xmlns="http://www.w3.org/2000/svg">
<path fill-rule="evenodd" clip-rule="evenodd" d="M5.18624 5.75209C5.16472 5.68524 5.13996 5.60733 5.1138 5.52358C5.08222 5.42246 5.04862 5.31283 5.01629 5.20389C4.92666 4.90191 4.84677 4.60523 4.84671 4.50991C4.84658 4.31499 5.03439 4.11995 5.27359 4.11979L6.55502 4.11894C6.79422 4.11878 6.98205 3.94713 6.9819 3.72882C6.98176 3.51052 6.10033 1.2423 6.10033 1.2423C6.0319 1.10201 5.87806 1.00076 5.69866 1.00088L2.70866 1.00287L2.71074 4.1215C2.76049 4.12147 2.80914 4.12447 2.85646 4.13058C3.03659 4.15385 3.19734 4.22216 3.32597 4.33939C3.43008 4.43428 3.80486 5.08643 4.0898 5.5958C4.16085 5.7228 4.22632 5.84093 4.28061 5.93933C4.33505 6.038 4.37826 6.11684 4.40459 6.16489C4.41098 6.17654 4.41637 6.18638 4.42069 6.19425C4.42555 6.20265 4.43062 6.21091 4.4359 6.219C4.52371 6.35355 4.66927 6.44446 4.82238 6.45907C4.87369 6.46572 4.91241 6.45517 4.96013 6.44217C4.96803 6.44001 4.97618 6.43779 4.98468 6.43557C5.20675 6.36525 5.31766 6.14687 5.24918 5.94421C5.23723 5.90885 5.21721 5.8481 5.19228 5.77086C5.1903 5.7647 5.18828 5.75844 5.18624 5.75209ZM4.71248 7.45304C4.86054 7.47 4.98844 7.45793 5.09098 7.43836C5.13818 7.42936 5.17744 7.41919 5.19901 7.41347L5.23764 7.40304L5.26228 7.3966L5.28656 7.38892C6.01047 7.15969 6.45474 6.38819 6.19656 5.6241C6.17237 5.55249 6.10609 5.34907 6.03542 5.11928L6.55569 5.11894C7.25918 5.11847 7.98247 4.58282 7.9819 3.72816C7.98182 3.59655 7.95592 3.48217 7.94791 3.44682L7.94739 3.44451C7.93468 3.38826 7.91909 3.33124 7.90419 3.28003C7.87402 3.17628 7.83415 3.05372 7.79097 2.92659C7.70385 2.6701 7.58988 2.35593 7.47869 2.05604C7.36691 1.75459 7.25543 1.46083 7.17207 1.24289C7.13034 1.13378 7.09554 1.04338 7.07113 0.980128L7.03263 0.880624L7.01735 0.841289L6.9991 0.803875C6.75923 0.312151 6.25139 0.000508531 5.69799 0.000877565L-0.000579938 0.00467764L0.00283341 5.12331L2.65732 5.12154C2.6699 5.14148 2.68356 5.16341 2.69828 5.18733C2.79114 5.33821 2.90606 5.53519 3.02389 5.74178C3.24025 6.12113 3.4518 6.50709 3.52774 6.64565C3.53416 6.65735 3.5396 6.66729 3.544 6.67531L3.54927 6.68492L3.55475 6.6944C3.79089 7.10324 4.21743 7.40075 4.71248 7.45304ZM1.85437 1.00344L1.85645 4.12207L1.00217 4.12264L1.00009 1.00401L1.85437 1.00344ZM4.3018 6.26432C4.30167 6.26393 4.30154 6.26354 4.30141 6.26315Z" fill="white"/>
</svg>
