<svg width="22" height="18" viewBox="0 0 22 18" fill="currentColor" xmlns="http://www.w3.org/2000/svg">
<path d="M19.4375 0.75H2.5625C2.01568 0.75062 1.49144 0.968118 1.10478 1.35478C0.718118 1.74144 0.50062 2.26568 0.5 2.8125V15.1875C0.50062 15.7343 0.718118 16.2586 1.10478 16.6452C1.49144 17.0319 2.01568 17.2494 2.5625 17.25H19.4375C19.9843 17.2494 20.5086 17.0319 20.8952 16.6452C21.2819 16.2586 21.4994 15.7343 21.5 15.1875V2.8125C21.4994 2.26568 21.2819 1.74144 20.8952 1.35478C20.5086 0.968118 19.9843 0.75062 19.4375 0.75ZM4.25 15.1875C4.25 15.3367 4.19074 15.4798 4.08525 15.5852C3.97976 15.6907 3.83668 15.75 3.6875 15.75H2.5625C2.41332 15.75 2.27024 15.6907 2.16475 15.5852C2.05926 15.4798 2 15.3367 2 15.1875V14.0625C2 13.9133 2.05926 13.7702 2.16475 13.6648C2.27024 13.5593 2.41332 13.5 2.5625 13.5H3.6875C3.83668 13.5 3.97976 13.5593 4.08525 13.6648C4.19074 13.7702 4.25 13.9133 4.25 14.0625V15.1875ZM4.25 11.4375C4.25 11.5867 4.19074 11.7298 4.08525 11.8352C3.97976 11.9407 3.83668 12 3.6875 12H2.5625C2.41332 12 2.27024 11.9407 2.16475 11.8352C2.05926 11.7298 2 11.5867 2 11.4375V10.3125C2 10.1633 2.05926 10.0202 2.16475 9.91475C2.27024 9.80926 2.41332 9.75 2.5625 9.75H3.6875C3.83668 9.75 3.97976 9.80926 4.08525 9.91475C4.19074 10.0202 4.25 10.1633 4.25 10.3125V11.4375ZM4.25 7.6875C4.25 7.83668 4.19074 7.97976 4.08525 8.08525C3.97976 8.19074 3.83668 8.25 3.6875 8.25H2.5625C2.41332 8.25 2.27024 8.19074 2.16475 8.08525C2.05926 7.97976 2 7.83668 2 7.6875V6.5625C2 6.41332 2.05926 6.27024 2.16475 6.16475C2.27024 6.05926 2.41332 6 2.5625 6H3.6875C3.83668 6 3.97976 6.05926 4.08525 6.16475C4.19074 6.27024 4.25 6.41332 4.25 6.5625V7.6875ZM4.25 3.9375C4.25 4.08668 4.19074 4.22976 4.08525 4.33525C3.97976 4.44074 3.83668 4.5 3.6875 4.5H2.5625C2.41332 4.5 2.27024 4.44074 2.16475 4.33525C2.05926 4.22976 2 4.08668 2 3.9375V2.8125C2 2.66332 2.05926 2.52024 2.16475 2.41475C2.27024 2.30926 2.41332 2.25 2.5625 2.25H3.6875C3.83668 2.25 3.97976 2.30926 4.08525 2.41475C4.19074 2.52024 4.25 2.66332 4.25 2.8125V3.9375ZM15.5787 9.75H6.42125C6.22234 9.75 6.03157 9.67098 5.89092 9.53033C5.75027 9.38968 5.67125 9.19891 5.67125 9C5.67125 8.80109 5.75027 8.61032 5.89092 8.46967C6.03157 8.32902 6.22234 8.25 6.42125 8.25H15.5787C15.7777 8.25 15.9684 8.32902 16.1091 8.46967C16.2497 8.61032 16.3287 8.80109 16.3287 9C16.3287 9.19891 16.2497 9.38968 16.1091 9.53033C15.9684 9.67098 15.7777 9.75 15.5787 9.75ZM20 15.1875C20 15.3367 19.9407 15.4798 19.8352 15.5852C19.7298 15.6907 19.5867 15.75 19.4375 15.75H18.3125C18.1633 15.75 18.0202 15.6907 17.9148 15.5852C17.8093 15.4798 17.75 15.3367 17.75 15.1875V14.0625C17.75 13.9133 17.8093 13.7702 17.9148 13.6648C18.0202 13.5593 18.1633 13.5 18.3125 13.5H19.4375C19.5867 13.5 19.7298 13.5593 19.8352 13.6648C19.9407 13.7702 20 13.9133 20 14.0625V15.1875ZM20 11.4375C20 11.5867 19.9407 11.7298 19.8352 11.8352C19.7298 11.9407 19.5867 12 19.4375 12H18.3125C18.1633 12 18.0202 11.9407 17.9148 11.8352C17.8093 11.7298 17.75 11.5867 17.75 11.4375V10.3125C17.75 10.1633 17.8093 10.0202 17.9148 9.91475C18.0202 9.80926 18.1633 9.75 18.3125 9.75H19.4375C19.5867 9.75 19.7298 9.80926 19.8352 9.91475C19.9407 10.0202 20 10.1633 20 10.3125V11.4375ZM20 7.6875C20 7.83668 19.9407 7.97976 19.8352 8.08525C19.7298 8.19074 19.5867 8.25 19.4375 8.25H18.3125C18.1633 8.25 18.0202 8.19074 17.9148 8.08525C17.8093 7.97976 17.75 7.83668 17.75 7.6875V6.5625C17.75 6.41332 17.8093 6.27024 17.9148 6.16475C18.0202 6.05926 18.1633 6 18.3125 6H19.4375C19.5867 6 19.7298 6.05926 19.8352 6.16475C19.9407 6.27024 20 6.41332 20 6.5625V7.6875ZM20 3.9375C20 4.08668 19.9407 4.22976 19.8352 4.33525C19.7298 4.44074 19.5867 4.5 19.4375 4.5H18.3125C18.1633 4.5 18.0202 4.44074 17.9148 4.33525C17.8093 4.22976 17.75 4.08668 17.75 3.9375V2.8125C17.75 2.66332 17.8093 2.52024 17.9148 2.41475C18.0202 2.30926 18.1633 2.25 18.3125 2.25H19.4375C19.5867 2.25 19.7298 2.30926 19.8352 2.41475C19.9407 2.52024 20 2.66332 20 2.8125V3.9375Z" fill="black"/>
</svg>
