<svg width="28" height="28" viewBox="0 0 28 28" fill="none" xmlns="http://www.w3.org/2000/svg">
    <path d="M28 14C28 6.26801 21.732 0 14 0C6.26801 0 0 6.26801 0 14C0 21.732 6.26801 28 14 28C21.732 28 28 21.732 28 14Z" fill="#505050"/>
    <path d="M13.1921 14.5078C13.3944 13.8067 14.0682 12.9678 14.393 12.6244C15.2801 11.6892 16.0566 11.0035 16.0566 9.88893C16.0566 8.9669 15.3337 8.01424 14.0682 8.01424C12.899 8.01424 11.9594 8.70659 11.9846 10.0399C12.0108 11.4388 14.6457 12.0436 12.9547 12.8771C11.4038 13.6416 9.37818 12.2383 8.62349 11.0549C8.04709 10.1514 7.97928 8.83237 8.49225 7.77034C9.41865 5.8519 11.0582 4.71877 13.4043 4.45408C16.3027 4.12705 19.281 5.71737 19.8749 8.24502C20.6876 11.6969 16.9962 13.3189 15.6322 14.5067C13.7991 16.1047 14.941 18.9802 14.2016 18.9802C13.5169 18.9802 12.6562 16.3628 13.191 14.5067L13.1921 14.5078ZM10.7618 20.436C10.5704 20.4677 10.3779 20.4961 10.1876 20.5311C9.50396 20.6558 8.83459 20.81 8.22209 21.0878C7.97709 21.1994 7.76381 21.3394 7.59974 21.521C7.50021 21.6303 7.45428 21.7528 7.47943 21.8896C7.5199 22.1061 7.68287 22.2625 7.88521 22.3971C8.14662 22.571 8.45068 22.6924 8.76678 22.7941C9.79381 23.1266 10.8766 23.2731 11.9726 23.3661C12.9701 23.4503 13.9719 23.4722 14.9749 23.4372C16.0687 23.4 17.1537 23.3049 18.2179 23.0981C18.8315 22.9789 19.433 22.828 19.9799 22.571C20.2019 22.4671 20.4054 22.3456 20.5541 22.175C20.7772 21.9191 20.7477 21.6489 20.4852 21.4203C20.226 21.1939 19.9012 21.0463 19.5555 20.9238C19.0196 20.7335 18.4563 20.6066 17.8821 20.5103C17.729 20.4841 17.5747 20.4622 17.4205 20.4381C17.5507 20.4917 17.6896 20.5256 17.8143 20.5803C17.9619 20.6449 18.1118 20.7138 18.2343 20.8024C18.4158 20.9336 18.4104 21.0944 18.2376 21.2322C18.1621 21.2924 18.0724 21.346 17.9783 21.3886C17.6251 21.5516 17.2346 21.6358 16.8387 21.7036C15.6322 21.9071 14.4105 21.9453 13.1822 21.8917C12.3762 21.8567 11.5777 21.7802 10.8022 21.591C10.5233 21.5231 10.251 21.4411 10.0202 21.2946C9.74459 21.1185 9.73693 20.915 10.0202 20.7477C10.1744 20.6558 10.3582 20.5935 10.5321 20.5235C10.6065 20.4928 10.6896 20.4742 10.7683 20.4502C10.7662 20.4447 10.7651 20.4403 10.7629 20.4349L10.7618 20.436ZM15.6508 20.8636C15.8258 20.8242 15.9987 20.763 16.154 20.6886C16.3104 20.6131 16.3082 20.495 16.154 20.4163C16.0227 20.3496 15.8762 20.2927 15.7252 20.261C14.7397 20.0553 13.7444 20.0597 12.748 20.2019C12.5019 20.2369 12.2591 20.2872 12.0491 20.3999C11.8676 20.4972 11.8643 20.6175 12.0513 20.7083C12.1749 20.7685 12.3138 20.8144 12.4527 20.8483C12.9821 20.9741 13.529 21.0003 14.1513 21.0069C14.6085 21.0014 15.1379 20.9796 15.6508 20.8647V20.8636Z" fill="white"/>
</svg>