<?xml version="1.0" standalone="no"?>
<!DOCTYPE svg PUBLIC "-//W3C//DTD SVG 20010904//EN"
 "http://www.w3.org/TR/2001/REC-SVG-20010904/DTD/svg10.dtd">
<svg version="1.0" xmlns="http://www.w3.org/2000/svg"
 width="700.000000pt" height="700.000000pt" viewBox="0 0 700.000000 700.000000"
 preserveAspectRatio="xMidYMid meet">
<metadata>
Created by potrace 1.14, written by Peter Selinger 2001-2017
</metadata>
<g transform="translate(0.000000,700.000000) scale(0.100000,-0.100000)"
fill="#000000" stroke="none">
<path d="M3308 6995 c-2 -2 -45 -6 -95 -9 -51 -4 -103 -9 -115 -11 -13 -2 -45
-6 -73 -10 -54 -7 -105 -14 -139 -21 -366 -70 -648 -165 -961 -324 -365 -185
-635 -383 -918 -670 -319 -325 -558 -683 -736 -1101 -69 -163 -162 -458 -187
-589 -2 -14 -9 -45 -14 -70 -12 -59 -29 -154 -35 -210 -4 -25 -8 -58 -10 -75
-13 -95 -19 -223 -19 -405 0 -224 5 -321 29 -486 9 -60 18 -121 20 -136 22
-151 124 -504 204 -702 50 -124 164 -352 233 -464 35 -57 68 -111 73 -120 78
-136 306 -414 480 -586 145 -143 421 -366 546 -441 18 -11 40 -25 49 -30 109
-72 479 -265 508 -265 4 0 27 -9 49 -20 96 -46 469 -158 618 -185 297 -53 373
-60 675 -60 219 0 407 8 442 20 7 2 38 6 69 9 30 3 62 7 70 10 8 3 30 7 49 10
116 17 297 62 455 113 824 265 1524 832 1960 1588 166 286 295 611 370 930 14
61 28 121 30 135 2 14 6 36 9 50 7 32 14 74 22 130 3 25 7 56 10 70 26 161 26
700 -1 850 -2 14 -6 43 -9 65 -13 101 -19 139 -47 265 -116 529 -355 1026
-697 1448 -94 116 -83 104 -211 237 -153 157 -344 322 -496 425 -27 18 -52 36
-55 39 -6 7 -9 9 -155 97 -215 131 -486 255 -725 332 -107 34 -268 78 -319 87
-19 3 -37 8 -40 10 -4 2 -27 6 -51 10 -25 3 -52 8 -60 10 -8 2 -33 7 -55 10
-23 3 -50 7 -60 9 -11 2 -51 7 -90 11 -38 4 -88 9 -110 12 -40 5 -482 12 -487
8z"/>
</g>
</svg>
